<?xml version="1.0" encoding="UTF-8"?>
<!-- Generator: visioncortex VTracer 0.6.1 -->
<svg version="1.1" xmlns="http://www.w3.org/2000/svg" width="1280" height="1280">
<path d="M0 0 C0.825 0.5775 1.65 1.155 2.5 1.75 C3.7065625 2.58917969 3.7065625 2.58917969 4.9375 3.4453125 C7.89345807 6.10387235 9.36964146 8.83084089 11 12.375 C11.69036848 13.81430031 12.38185712 15.25306366 13.07421875 16.69140625 C13.45497559 17.49078613 13.83573242 18.29016602 14.22802734 19.11376953 C16.15104968 23.09933482 18.15066289 27.04559947 20.14257812 30.99707031 C28.94465725 48.4725432 37.3663817 66.10819538 45.5625 83.875 C53.67194549 101.26282005 62.10681924 118.49735066 70.5 135.75 C261.57 135.75 452.64 135.75 649.5 135.75 C657.65964299 118.68912149 657.65964299 118.68912149 665.8125 101.625 C668.79585961 95.37859082 671.79265558 89.13902125 674.8125 82.91015625 C680.57102551 71.02990385 686.28783066 59.13448076 691.85873413 47.16485596 C692.74247121 45.26617536 693.62755313 43.36812684 694.51293945 41.47021484 C697.15589085 35.80166143 699.78677644 30.12804492 702.390625 24.44140625 C703.26011808 22.56496578 704.12988969 20.68865434 705 18.8125 C705.37286133 17.98492188 705.74572266 17.15734375 706.12988281 16.3046875 C709.456627 9.17978605 713.70533908 2.66112187 721.12963867 -0.59375 C731.40833958 -3.43947541 739.99226391 -0.45204594 749.125 4.1875 C750.9447833 5.07170598 752.76457282 5.95589923 754.58457947 6.83964539 C756.53227503 7.79111239 758.47352886 8.75471791 760.41357422 9.72167969 C764.66752689 11.83946225 768.94321532 13.91087485 773.22265625 15.9765625 C779.17851545 18.85372858 785.12718421 21.74507088 791.0703125 24.6484375 C796.3438141 27.22329692 801.62804577 29.77261504 806.9296875 32.2890625 C808.05930908 32.82587646 809.18893066 33.36269043 810.3527832 33.91577148 C812.40400805 34.88825832 814.45706029 35.85690611 816.51245117 36.82055664 C835.38823337 45.78061139 835.38823337 45.78061139 839.5 54.75 C844.65048597 70.20145791 831.67868999 87.74450487 825.0625 101.125 C823.20547564 104.88077961 821.35333474 108.6389127 819.50390625 112.3984375 C819.09120987 113.22910736 818.67851349 114.05977722 818.25331116 114.9156189 C814.72885842 122.0815945 811.59898484 129.39210044 808.5 136.75 C809.32970306 136.74111755 810.15940613 136.73223511 811.01425171 136.7230835 C818.86950008 136.64262155 826.72460816 136.58187601 834.5801754 136.54275131 C838.61792085 136.52195996 842.6553231 136.49379927 846.69287109 136.44824219 C850.59623162 136.40447954 854.499264 136.38079948 858.4028511 136.37049103 C859.88507877 136.36315375 861.3672904 136.34882699 862.84937668 136.32707977 C874.26570875 136.16636938 883.55341492 137.62064554 892.6796875 144.91796875 C899.87938616 152.1640174 902.74844665 161.18793661 902.75299966 171.23677039 C902.75605276 171.96238831 902.75910585 172.68800622 902.76225147 173.43561256 C902.77004445 175.86681422 902.76362228 178.29776676 902.75726891 180.72896957 C902.75996233 182.49721323 902.76353018 184.26545573 902.76789337 186.03369606 C902.77736812 190.91075049 902.7743453 195.78773041 902.76933783 200.66478856 C902.76607697 205.96391143 902.77434892 211.26301817 902.78115618 216.56213593 C902.79147552 225.85562037 902.79429662 235.14908396 902.79224396 244.44257355 C902.789199 258.26230191 902.79750672 272.08200714 902.80799321 285.90173101 C902.82735587 312.01761089 902.83296351 338.13348101 902.83410732 364.24936697 C902.83423682 367.13030861 902.8343727 370.01125025 902.83451414 372.89219189 C902.83454815 373.60709632 902.83458216 374.32200076 902.8346172 375.05856896 C902.83543398 390.89810181 902.83981339 406.73763305 902.84482583 422.57716505 C902.84688253 429.09855049 902.84886259 435.61993596 902.85085833 442.14132142 C902.85107951 442.86187036 902.85130069 443.58241929 902.85152857 444.32480304 C902.86417755 485.61838923 902.87242671 526.91197437 902.87151146 568.20556259 C902.8714799 569.75105551 902.87144843 571.29654844 902.87141704 572.84204136 C902.87127027 579.81987954 902.87109393 586.79771771 902.87090927 593.77555589 C902.87082703 596.88717822 902.87074673 599.99880056 902.87066665 603.11042289 C902.87062586 604.66784627 902.87058382 606.22526965 902.87054053 607.78269303 C902.86917997 657.03254981 902.8838155 706.28237784 902.91162109 755.53222656 C902.91862307 767.94103868 902.92556196 780.34985083 902.93214989 792.75866318 C902.93255564 793.52271148 902.93296138 794.28675978 902.93337943 795.07396106 C902.94580836 818.62064831 902.95334034 842.1673332 902.95586586 865.71402359 C902.95598571 866.8228486 902.95598571 866.8228486 902.95610799 867.95407412 C902.9578145 884.18127158 902.95833694 900.40846889 902.95776723 916.63566642 C902.95757426 922.44198431 902.95747018 928.24830221 902.95740977 934.0546201 C902.95739395 935.49909742 902.95737354 936.94357473 902.95734853 938.38805205 C902.95699582 961.40848653 902.96839436 984.4288964 902.98565616 1007.44932382 C903.00343378 1031.27877723 903.00660498 1055.10818301 902.9930319 1078.93764135 C902.98562721 1092.67936577 902.98934602 1106.42098237 903.00891658 1120.16269542 C903.02087999 1129.33633576 903.01836616 1138.50989766 903.00397559 1147.68353434 C902.99618181 1152.91401329 902.9947491 1158.14428296 903.01089029 1163.37474748 C903.02544791 1168.13363532 903.02157564 1172.89213962 903.00304256 1177.65101038 C902.99960149 1179.3613133 903.00285173 1181.07164625 903.01364497 1182.78191857 C903.08769514 1195.35864938 901.754564 1205.83902297 893.42578125 1215.80859375 C888.12044321 1221.15697713 881.62476463 1224.44827311 874.06551324 1225.001233 C872.15545502 1225.0021075 872.15545502 1225.0021075 870.20680976 1225.00299966 C869.4899844 1225.00605276 868.77315904 1225.00910585 868.0346117 1225.01225147 C865.62735003 1225.02005869 863.22033894 1225.01361654 860.81307602 1225.00726891 C859.06445493 1225.00996172 857.31583501 1225.01352922 855.56721729 1225.01789337 C850.73999023 1225.0273763 845.91283838 1225.02434267 841.08560755 1225.01933783 C835.8422517 1225.01607906 830.59891219 1225.02434717 825.35556149 1225.03115618 C816.15847012 1225.04147893 806.9613998 1225.04429604 797.76430321 1225.04224396 C784.08794711 1225.03919987 770.41161439 1225.04750478 756.73526283 1225.05799321 C730.89063346 1225.07735911 705.04601577 1225.08296363 679.20138064 1225.08410732 C676.35008393 1225.08423682 673.49878721 1225.0843727 670.6474905 1225.08451414 C669.58617569 1225.08456515 669.58617569 1225.08456515 668.50342017 1225.0846172 C652.8289575 1225.08543388 637.15449646 1225.08981297 621.48003465 1225.09482583 C615.02717619 1225.09688252 608.57431772 1225.09886258 602.12145925 1225.10085833 C601.40848742 1225.10107951 600.6955156 1225.10130069 599.96093857 1225.10152857 C559.09976682 1225.11417813 518.23859613 1225.12242665 477.37742233 1225.12151146 C475.84801045 1225.1214799 474.31859856 1225.12144843 472.78918668 1225.12141704 C465.88391117 1225.12127027 458.97863566 1225.12109393 452.07336015 1225.12090927 C448.99407851 1225.12082703 445.91479688 1225.12074673 442.83551524 1225.12066665 C441.29427865 1225.12062586 439.75304206 1225.12058382 438.21180547 1225.12054053 C389.47371077 1225.11917997 340.73564514 1225.13381531 291.99755859 1225.16162109 C279.71782311 1225.16862304 267.43808761 1225.17556191 255.1583519 1225.18214989 C254.40225748 1225.18255564 253.64616306 1225.18296138 252.86715668 1225.18337943 C229.56659069 1225.19580784 206.26602709 1225.20334024 182.96545792 1225.20586586 C182.23399586 1225.20594576 181.5025338 1225.20602566 180.74890622 1225.20610799 C164.69213478 1225.20781448 148.63536348 1225.20833695 132.57859197 1225.20776723 C126.83328473 1225.20757426 121.08797749 1225.20747018 115.34267025 1225.20740977 C113.91336292 1225.20739395 112.48405559 1225.20737354 111.05474826 1225.20734853 C88.27327683 1225.20699578 65.49183026 1225.21839611 42.71036595 1225.23565616 C19.12897544 1225.25343145 -4.45236483 1225.25660688 -28.03376183 1225.2430319 C-41.63349757 1225.23562566 -55.23312437 1225.23935062 -68.83284863 1225.25891658 C-77.91060239 1225.27087604 -86.98827688 1225.2683706 -96.06602693 1225.25397559 C-101.24257829 1225.24617843 -106.41891815 1225.24475867 -111.59545496 1225.26089029 C-116.30425251 1225.27543619 -121.01266221 1225.27158951 -125.72144242 1225.25304256 C-127.41473602 1225.24959835 -129.10805988 1225.25286197 -130.80132265 1225.26364497 C-142.14825107 1225.33106767 -152.20527882 1224.65755813 -160.90234375 1216.515625 C-167.76328532 1208.93336194 -170.74897795 1201.55456555 -170.751849 1191.24810421 C-170.75477786 1190.52084898 -170.75770673 1189.79359375 -170.76072434 1189.04430048 C-170.7681005 1186.60751916 -170.76125308 1184.17098909 -170.75447559 1181.73420906 C-170.75686554 1179.96194945 -170.76013078 1178.18969084 -170.76419219 1176.41743428 C-170.77283497 1171.52924119 -170.76897631 1166.64112462 -170.76313647 1161.75293031 C-170.75897572 1156.44176537 -170.76636268 1151.13061464 -170.77228898 1145.81945312 C-170.78106633 1136.50488216 -170.78235765 1127.19033319 -170.77878571 1117.87575912 C-170.77348811 1104.02478536 -170.77956448 1090.17383294 -170.78786864 1076.32286149 C-170.80270924 1050.8685556 -170.80495647 1025.41426085 -170.80254826 999.95995169 C-170.80220982 996.35266339 -170.80188772 992.74537509 -170.80158257 989.1380868 C-170.80152153 988.4216051 -170.80146049 987.70512339 -170.80139759 986.96693013 C-170.80012603 971.09302949 -170.80272647 955.2191302 -170.80610864 939.34522997 C-170.80687938 935.7213343 -170.80762411 932.09743862 -170.80837366 928.47354295 C-170.80867535 927.01914309 -170.80897723 925.56474322 -170.8092793 924.11034336 C-170.80950382 923.02896878 -170.80950382 923.02896878 -170.80973287 921.92574826 C-170.8100364 920.46754507 -170.81034109 919.00934188 -170.81064692 917.5511387 C-170.81932112 876.1702624 -170.82396299 834.7893873 -170.81969929 793.40851021 C-170.81962123 792.64212218 -170.81954317 791.87573414 -170.81946275 791.08612223 C-170.81858994 782.53993238 -170.81766068 773.99374254 -170.81671212 765.4475527 C-170.81662661 764.67594622 -170.8165411 763.90433975 -170.816453 763.10935126 C-170.81574217 756.69764463 -170.81574217 756.69764463 -170.81541077 753.74802609 C-170.8098745 704.38913894 -170.81741806 655.03027049 -170.83618164 605.67138672 C-170.84090377 593.23405015 -170.84558425 580.79671358 -170.8500185 568.35937691 C-170.85029182 567.59358225 -170.85056515 566.82778759 -170.85084675 566.03878703 C-170.85921659 542.44072857 -170.86389757 518.84267167 -170.86472607 495.24461174 C-170.86475243 494.50385613 -170.8647788 493.76310052 -170.86480596 492.99989776 C-170.86534672 476.73947398 -170.86497435 460.47905032 -170.86376625 444.21862657 C-170.86334062 438.40054999 -170.86297549 432.5824734 -170.86263681 426.76439681 C-170.86255151 425.31698504 -170.86246257 423.86957326 -170.86236999 422.42216149 C-170.86092064 399.34955128 -170.8680512 376.27695377 -170.87937395 353.20434661 C-170.89101727 329.32389428 -170.89159423 305.44346964 -170.87953053 281.56301631 C-170.87288464 267.7897846 -170.87457272 254.01661262 -170.88811904 240.24338565 C-170.89633302 231.05129519 -170.89370591 221.8592497 -170.88214377 212.66716293 C-170.87585697 207.42453272 -170.87436442 202.18201948 -170.88600711 196.9393958 C-170.8964977 192.17185051 -170.89323082 187.40452196 -170.87890258 182.63698847 C-170.87616974 180.92128848 -170.87848179 179.2055713 -170.88640973 177.48988745 C-170.94264296 164.43111962 -169.82139676 154.69024468 -160.5 144.75 C-152.10375111 136.97282937 -142.36161296 136.31262862 -131.37109375 136.45703125 C-130.14084976 136.46127609 -128.91060577 136.46552094 -127.64308167 136.46989441 C-123.74099184 136.48659234 -119.83943188 136.52422925 -115.9375 136.5625 C-113.28060652 136.57926197 -110.62371802 136.59124461 -107.96679688 136.60351562 C-101.47768595 136.63646682 -94.98888085 136.68657762 -88.5 136.75 C-88.9218457 135.88648926 -89.34369141 135.02297852 -89.77832031 134.13330078 C-98.4826666 116.3034402 -107.12870214 98.45491914 -115.3046875 80.37475586 C-116.08563505 78.65989329 -116.88192177 76.95191143 -117.6953125 75.25219727 C-120.95736716 68.31671624 -121.97503036 61.96061022 -119.83984375 54.41796875 C-115.55284989 44.71191771 -106.11399804 40.77703208 -97 36.5625 C-95.78610044 35.99109501 -94.57272948 35.41856585 -93.35986328 34.8449707 C-90.90285194 33.68461037 -88.44338203 32.52975527 -85.98144531 31.37988281 C-81.09897139 29.09409067 -76.2367136 26.7670251 -71.375 24.4375 C-70.47821533 24.00985352 -69.58143066 23.58220703 -68.6574707 23.14160156 C-62.78527703 20.33833117 -56.9299235 17.50193341 -51.08203125 14.6484375 C-49.59718137 13.92485857 -48.11231803 13.20130725 -46.62744141 12.4777832 C-43.73066815 11.06613375 -40.83618792 9.64991865 -37.94287109 8.23120117 C-12.19382858 -4.35493878 -12.19382858 -4.35493878 0 0 Z " fill="#8D8D8D" transform="translate(272.5,5.25)"/>
<path d="M0 0 C0.825 0.5775 1.65 1.155 2.5 1.75 C3.7065625 2.58917969 3.7065625 2.58917969 4.9375 3.4453125 C7.89345807 6.10387235 9.36964146 8.83084089 11 12.375 C11.69036848 13.81430031 12.38185712 15.25306366 13.07421875 16.69140625 C13.45497559 17.49078613 13.83573242 18.29016602 14.22802734 19.11376953 C16.15104968 23.09933482 18.15066289 27.04559947 20.14257812 30.99707031 C28.94465725 48.4725432 37.3663817 66.10819538 45.5625 83.875 C53.67194549 101.26282005 62.10681924 118.49735066 70.5 135.75 C261.57 135.75 452.64 135.75 649.5 135.75 C657.65964299 118.68912149 657.65964299 118.68912149 665.8125 101.625 C668.79585961 95.37859082 671.79265558 89.13902125 674.8125 82.91015625 C680.57102551 71.02990385 686.28783066 59.13448076 691.85873413 47.16485596 C692.74247121 45.26617536 693.62755313 43.36812684 694.51293945 41.47021484 C697.15589085 35.80166143 699.78677644 30.12804492 702.390625 24.44140625 C703.26011808 22.56496578 704.12988969 20.68865434 705 18.8125 C705.37286133 17.98492188 705.74572266 17.15734375 706.12988281 16.3046875 C709.456627 9.17978605 713.70533908 2.66112187 721.12963867 -0.59375 C731.40833958 -3.43947541 739.99226391 -0.45204594 749.125 4.1875 C750.9447833 5.07170598 752.76457282 5.95589923 754.58457947 6.83964539 C756.53227503 7.79111239 758.47352886 8.75471791 760.41357422 9.72167969 C764.66752689 11.83946225 768.94321532 13.91087485 773.22265625 15.9765625 C779.17851545 18.85372858 785.12718421 21.74507088 791.0703125 24.6484375 C796.3438141 27.22329692 801.62804577 29.77261504 806.9296875 32.2890625 C808.05930908 32.82587646 809.18893066 33.36269043 810.3527832 33.91577148 C812.40400805 34.88825832 814.45706029 35.85690611 816.51245117 36.82055664 C835.38823337 45.78061139 835.38823337 45.78061139 839.5 54.75 C844.65048597 70.20145791 831.67868999 87.74450487 825.0625 101.125 C823.20547564 104.88077961 821.35333474 108.6389127 819.50390625 112.3984375 C819.09120987 113.22910736 818.67851349 114.05977722 818.25331116 114.9156189 C814.72885842 122.0815945 811.59898484 129.39210044 808.5 136.75 C809.32970306 136.74111755 810.15940613 136.73223511 811.01425171 136.7230835 C818.86950008 136.64262155 826.72460816 136.58187601 834.5801754 136.54275131 C838.61792085 136.52195996 842.6553231 136.49379927 846.69287109 136.44824219 C850.59623162 136.40447954 854.499264 136.38079948 858.4028511 136.37049103 C859.88507877 136.36315375 861.3672904 136.34882699 862.84937668 136.32707977 C874.26570875 136.16636938 883.55341492 137.62064554 892.6796875 144.91796875 C899.87938616 152.1640174 902.74844665 161.18793661 902.75299966 171.23677039 C902.75605276 171.96238831 902.75910585 172.68800622 902.76225147 173.43561256 C902.77004445 175.86681422 902.76362228 178.29776676 902.75726891 180.72896957 C902.75996233 182.49721323 902.76353018 184.26545573 902.76789337 186.03369606 C902.77736812 190.91075049 902.7743453 195.78773041 902.76933783 200.66478856 C902.76607697 205.96391143 902.77434892 211.26301817 902.78115618 216.56213593 C902.79147552 225.85562037 902.79429662 235.14908396 902.79224396 244.44257355 C902.789199 258.26230191 902.79750672 272.08200714 902.80799321 285.90173101 C902.82735587 312.01761089 902.83296351 338.13348101 902.83410732 364.24936697 C902.83423682 367.13030861 902.8343727 370.01125025 902.83451414 372.89219189 C902.83454815 373.60709632 902.83458216 374.32200076 902.8346172 375.05856896 C902.83543398 390.89810181 902.83981339 406.73763305 902.84482583 422.57716505 C902.84688253 429.09855049 902.84886259 435.61993596 902.85085833 442.14132142 C902.85107951 442.86187036 902.85130069 443.58241929 902.85152857 444.32480304 C902.86417755 485.61838923 902.87242671 526.91197437 902.87151146 568.20556259 C902.8714799 569.75105551 902.87144843 571.29654844 902.87141704 572.84204136 C902.87127027 579.81987954 902.87109393 586.79771771 902.87090927 593.77555589 C902.87082703 596.88717822 902.87074673 599.99880056 902.87066665 603.11042289 C902.87062586 604.66784627 902.87058382 606.22526965 902.87054053 607.78269303 C902.86917997 657.03254981 902.8838155 706.28237784 902.91162109 755.53222656 C902.91862307 767.94103868 902.92556196 780.34985083 902.93214989 792.75866318 C902.93255564 793.52271148 902.93296138 794.28675978 902.93337943 795.07396106 C902.94580836 818.62064831 902.95334034 842.1673332 902.95586586 865.71402359 C902.95598571 866.8228486 902.95598571 866.8228486 902.95610799 867.95407412 C902.9578145 884.18127158 902.95833694 900.40846889 902.95776723 916.63566642 C902.95757426 922.44198431 902.95747018 928.24830221 902.95740977 934.0546201 C902.95739395 935.49909742 902.95737354 936.94357473 902.95734853 938.38805205 C902.95699582 961.40848653 902.96839436 984.4288964 902.98565616 1007.44932382 C903.00343378 1031.27877723 903.00660498 1055.10818301 902.9930319 1078.93764135 C902.98562721 1092.67936577 902.98934602 1106.42098237 903.00891658 1120.16269542 C903.02087999 1129.33633576 903.01836616 1138.50989766 903.00397559 1147.68353434 C902.99618181 1152.91401329 902.9947491 1158.14428296 903.01089029 1163.37474748 C903.02544791 1168.13363532 903.02157564 1172.89213962 903.00304256 1177.65101038 C902.99960149 1179.3613133 903.00285173 1181.07164625 903.01364497 1182.78191857 C903.08769514 1195.35864938 901.754564 1205.83902297 893.42578125 1215.80859375 C888.12044321 1221.15697713 881.62476463 1224.44827311 874.06551324 1225.001233 C872.15545502 1225.0021075 872.15545502 1225.0021075 870.20680976 1225.00299966 C869.4899844 1225.00605276 868.77315904 1225.00910585 868.0346117 1225.01225147 C865.62735003 1225.02005869 863.22033894 1225.01361654 860.81307602 1225.00726891 C859.06445493 1225.00996172 857.31583501 1225.01352922 855.56721729 1225.01789337 C850.73999023 1225.0273763 845.91283838 1225.02434267 841.08560755 1225.01933783 C835.8422517 1225.01607906 830.59891219 1225.02434717 825.35556149 1225.03115618 C816.15847012 1225.04147893 806.9613998 1225.04429604 797.76430321 1225.04224396 C784.08794711 1225.03919987 770.41161439 1225.04750478 756.73526283 1225.05799321 C730.89063346 1225.07735911 705.04601577 1225.08296363 679.20138064 1225.08410732 C676.35008393 1225.08423682 673.49878721 1225.0843727 670.6474905 1225.08451414 C669.58617569 1225.08456515 669.58617569 1225.08456515 668.50342017 1225.0846172 C652.8289575 1225.08543388 637.15449646 1225.08981297 621.48003465 1225.09482583 C615.02717619 1225.09688252 608.57431772 1225.09886258 602.12145925 1225.10085833 C601.40848742 1225.10107951 600.6955156 1225.10130069 599.96093857 1225.10152857 C559.09976682 1225.11417813 518.23859613 1225.12242665 477.37742233 1225.12151146 C475.84801045 1225.1214799 474.31859856 1225.12144843 472.78918668 1225.12141704 C465.88391117 1225.12127027 458.97863566 1225.12109393 452.07336015 1225.12090927 C448.99407851 1225.12082703 445.91479688 1225.12074673 442.83551524 1225.12066665 C441.29427865 1225.12062586 439.75304206 1225.12058382 438.21180547 1225.12054053 C389.47371077 1225.11917997 340.73564514 1225.13381531 291.99755859 1225.16162109 C279.71782311 1225.16862304 267.43808761 1225.17556191 255.1583519 1225.18214989 C254.40225748 1225.18255564 253.64616306 1225.18296138 252.86715668 1225.18337943 C229.56659069 1225.19580784 206.26602709 1225.20334024 182.96545792 1225.20586586 C182.23399586 1225.20594576 181.5025338 1225.20602566 180.74890622 1225.20610799 C164.69213478 1225.20781448 148.63536348 1225.20833695 132.57859197 1225.20776723 C126.83328473 1225.20757426 121.08797749 1225.20747018 115.34267025 1225.20740977 C113.91336292 1225.20739395 112.48405559 1225.20737354 111.05474826 1225.20734853 C88.27327683 1225.20699578 65.49183026 1225.21839611 42.71036595 1225.23565616 C19.12897544 1225.25343145 -4.45236483 1225.25660688 -28.03376183 1225.2430319 C-41.63349757 1225.23562566 -55.23312437 1225.23935062 -68.83284863 1225.25891658 C-77.91060239 1225.27087604 -86.98827688 1225.2683706 -96.06602693 1225.25397559 C-101.24257829 1225.24617843 -106.41891815 1225.24475867 -111.59545496 1225.26089029 C-116.30425251 1225.27543619 -121.01266221 1225.27158951 -125.72144242 1225.25304256 C-127.41473602 1225.24959835 -129.10805988 1225.25286197 -130.80132265 1225.26364497 C-142.14825107 1225.33106767 -152.20527882 1224.65755813 -160.90234375 1216.515625 C-167.76328532 1208.93336194 -170.74897795 1201.55456555 -170.751849 1191.24810421 C-170.75477786 1190.52084898 -170.75770673 1189.79359375 -170.76072434 1189.04430048 C-170.7681005 1186.60751916 -170.76125308 1184.17098909 -170.75447559 1181.73420906 C-170.75686554 1179.96194945 -170.76013078 1178.18969084 -170.76419219 1176.41743428 C-170.77283497 1171.52924119 -170.76897631 1166.64112462 -170.76313647 1161.75293031 C-170.75897572 1156.44176537 -170.76636268 1151.13061464 -170.77228898 1145.81945312 C-170.78106633 1136.50488216 -170.78235765 1127.19033319 -170.77878571 1117.87575912 C-170.77348811 1104.02478536 -170.77956448 1090.17383294 -170.78786864 1076.32286149 C-170.80270924 1050.8685556 -170.80495647 1025.41426085 -170.80254826 999.95995169 C-170.80220982 996.35266339 -170.80188772 992.74537509 -170.80158257 989.1380868 C-170.80152153 988.4216051 -170.80146049 987.70512339 -170.80139759 986.96693013 C-170.80012603 971.09302949 -170.80272647 955.2191302 -170.80610864 939.34522997 C-170.80687938 935.7213343 -170.80762411 932.09743862 -170.80837366 928.47354295 C-170.80867535 927.01914309 -170.80897723 925.56474322 -170.8092793 924.11034336 C-170.80950382 923.02896878 -170.80950382 923.02896878 -170.80973287 921.92574826 C-170.8100364 920.46754507 -170.81034109 919.00934188 -170.81064692 917.5511387 C-170.81932112 876.1702624 -170.82396299 834.7893873 -170.81969929 793.40851021 C-170.81962123 792.64212218 -170.81954317 791.87573414 -170.81946275 791.08612223 C-170.81858994 782.53993238 -170.81766068 773.99374254 -170.81671212 765.4475527 C-170.81662661 764.67594622 -170.8165411 763.90433975 -170.816453 763.10935126 C-170.81574217 756.69764463 -170.81574217 756.69764463 -170.81541077 753.74802609 C-170.8098745 704.38913894 -170.81741806 655.03027049 -170.83618164 605.67138672 C-170.84090377 593.23405015 -170.84558425 580.79671358 -170.8500185 568.35937691 C-170.85029182 567.59358225 -170.85056515 566.82778759 -170.85084675 566.03878703 C-170.85921659 542.44072857 -170.86389757 518.84267167 -170.86472607 495.24461174 C-170.86475243 494.50385613 -170.8647788 493.76310052 -170.86480596 492.99989776 C-170.86534672 476.73947398 -170.86497435 460.47905032 -170.86376625 444.21862657 C-170.86334062 438.40054999 -170.86297549 432.5824734 -170.86263681 426.76439681 C-170.86255151 425.31698504 -170.86246257 423.86957326 -170.86236999 422.42216149 C-170.86092064 399.34955128 -170.8680512 376.27695377 -170.87937395 353.20434661 C-170.89101727 329.32389428 -170.89159423 305.44346964 -170.87953053 281.56301631 C-170.87288464 267.7897846 -170.87457272 254.01661262 -170.88811904 240.24338565 C-170.89633302 231.05129519 -170.89370591 221.8592497 -170.88214377 212.66716293 C-170.87585697 207.42453272 -170.87436442 202.18201948 -170.88600711 196.9393958 C-170.8964977 192.17185051 -170.89323082 187.40452196 -170.87890258 182.63698847 C-170.87616974 180.92128848 -170.87848179 179.2055713 -170.88640973 177.48988745 C-170.94264296 164.43111962 -169.82139676 154.69024468 -160.5 144.75 C-152.10375111 136.97282937 -142.36161296 136.31262862 -131.37109375 136.45703125 C-130.14084976 136.46127609 -128.91060577 136.46552094 -127.64308167 136.46989441 C-123.74099184 136.48659234 -119.83943188 136.52422925 -115.9375 136.5625 C-113.28060652 136.57926197 -110.62371802 136.59124461 -107.96679688 136.60351562 C-101.47768595 136.63646682 -94.98888085 136.68657762 -88.5 136.75 C-88.9218457 135.88648926 -89.34369141 135.02297852 -89.77832031 134.13330078 C-98.4826666 116.3034402 -107.12870214 98.45491914 -115.3046875 80.37475586 C-116.08563505 78.65989329 -116.88192177 76.95191143 -117.6953125 75.25219727 C-120.95736716 68.31671624 -121.97503036 61.96061022 -119.83984375 54.41796875 C-115.55284989 44.71191771 -106.11399804 40.77703208 -97 36.5625 C-95.78610044 35.99109501 -94.57272948 35.41856585 -93.35986328 34.8449707 C-90.90285194 33.68461037 -88.44338203 32.52975527 -85.98144531 31.37988281 C-81.09897139 29.09409067 -76.2367136 26.7670251 -71.375 24.4375 C-70.47821533 24.00985352 -69.58143066 23.58220703 -68.6574707 23.14160156 C-62.78527703 20.33833117 -56.9299235 17.50193341 -51.08203125 14.6484375 C-49.59718137 13.92485857 -48.11231803 13.20130725 -46.62744141 12.4777832 C-43.73066815 11.06613375 -40.83618792 9.64991865 -37.94287109 8.23120117 C-12.19382858 -4.35493878 -12.19382858 -4.35493878 0 0 Z M-106.3766348 200.86695317 C-108.05627529 203.68245938 -107.87387673 205.98746 -107.87259549 209.25249547 C-107.87642975 209.92020225 -107.88026401 210.58790903 -107.88421445 211.27584934 C-107.89346976 213.53389576 -107.88117583 215.79132347 -107.86914349 218.04934978 C-107.8713608 219.68323765 -107.87489484 221.31712418 -107.87963298 222.95100668 C-107.88888469 227.4736365 -107.87927808 231.99606565 -107.86679858 236.5186806 C-107.85653415 241.42643133 -107.86360105 246.33416081 -107.86853105 251.24191552 C-107.87476621 259.85413685 -107.86979728 268.46629615 -107.85761642 277.07851028 C-107.83955394 289.8846617 -107.83860504 302.69077379 -107.84124239 315.49693562 C-107.84518959 337.03613308 -107.83513905 358.57530298 -107.81719017 380.11449242 C-107.79945659 401.44987309 -107.78786676 422.78524116 -107.78463173 444.12063026 C-107.78452849 444.78285042 -107.78442526 445.44507057 -107.78431889 446.127358 C-107.78337932 452.17558299 -107.78251624 458.22380798 -107.78174497 464.272033 C-107.77982661 479.30827209 -107.77694853 494.34451091 -107.77341938 509.3807497 C-107.77325943 510.06552063 -107.77309948 510.75029156 -107.77293468 511.45581312 C-107.76506721 544.77840768 -107.74614334 578.10099475 -107.72631836 611.42358398 C-107.71944347 622.98948155 -107.71261743 634.55537914 -107.70599365 646.12127686 C-107.7055828 646.83858003 -107.70517196 647.5558832 -107.70474866 648.29492283 C-107.6857218 681.63100591 -107.67454139 714.96709029 -107.66538927 748.30317738 C-107.66479507 750.46697436 -107.6641975 752.63077133 -107.66359923 754.79456831 C-107.65963994 769.13397974 -107.65581598 783.47339121 -107.65208265 797.81280271 C-107.64465285 826.34547655 -107.63642779 854.87815015 -107.62765651 883.41082361 C-107.62723879 884.76967088 -107.62682163 886.12851814 -107.62640502 887.48736541 C-107.59867628 977.90824999 -107.5510112 1068.32912589 -107.5 1158.75 C-104.68620099 1160.15689951 -102.36066181 1159.87461649 -99.21147144 1159.8741985 C-98.55476473 1159.87547658 -97.89805802 1159.87675467 -97.2214511 1159.87807148 C-94.99505727 1159.88116265 -92.76873283 1159.87705429 -90.54234123 1159.87304783 C-88.93349684 1159.87378674 -87.3246526 1159.87496455 -85.71580881 1159.87654433 C-81.25810928 1159.87963117 -76.80043234 1159.87642354 -72.34273449 1159.87226619 C-67.50704365 1159.86884716 -62.67135521 1159.87119988 -57.83566391 1159.87284368 C-49.34842366 1159.87492283 -40.8611904 1159.87326445 -32.37395096 1159.86920547 C-19.75360632 1159.86318657 -7.13326613 1159.86286817 5.48707968 1159.86374746 C26.71339427 1159.86506343 47.93970575 1159.86171212 69.16601944 1159.85573006 C90.19241476 1159.84981948 111.21880878 1159.84596542 132.24520493 1159.84487724 C133.55100611 1159.8448085 134.8568073 1159.84473976 136.20217822 1159.84466894 C142.83328261 1159.84433062 149.464387 1159.84402923 156.09549139 1159.84374207 C169.58139611 1159.84314774 183.0673008 1159.84221048 196.55320549 1159.84113979 C197.22799937 1159.84108648 197.90279324 1159.84103316 198.59803542 1159.84097823 C231.4375905 1159.83835554 264.27714474 1159.83204751 297.11669922 1159.82543945 C308.51538085 1159.82314783 319.91406249 1159.82087248 331.31274414 1159.81866455 C332.0196738 1159.8185276 332.72660347 1159.81839065 333.45495524 1159.81824955 C366.30703569 1159.81190763 399.15911628 1159.80818058 432.01119717 1159.80512976 C434.1434969 1159.80493169 436.27579663 1159.8047325 438.40809635 1159.80453308 C452.53873984 1159.80321332 466.66938333 1159.80193866 480.80002682 1159.80069422 C508.91745275 1159.7982176 537.03487866 1159.79547591 565.15230456 1159.79255217 C566.49138533 1159.79241293 567.83046611 1159.79227388 569.16954688 1159.79213501 C658.27969864 1159.78289162 747.38984943 1159.7670032 836.5 1159.75 C836.51687516 1069.69735423 836.53273351 979.64470826 836.54234314 885.50804138 C836.54248259 884.14258659 836.54262204 882.77713179 836.54276149 881.411677 C836.54568397 852.75251453 836.54840071 824.09335205 836.55087968 795.43418954 C836.5521251 781.03845392 836.55341008 766.64271831 836.55473244 752.24698269 C836.55493169 750.0753953 836.55512981 747.90380791 836.55532788 745.73222051 C836.55838906 712.27969133 836.56230013 678.82716252 836.56866455 645.37463379 C836.5688699 644.29515855 836.5688699 644.29515855 836.5690794 643.19387573 C836.57129186 631.59045654 836.57357543 619.98703736 836.57586844 608.38361819 C836.58246926 574.97569306 836.58854713 541.56776821 836.59113979 508.15984249 C836.59119333 507.47331565 836.59124686 506.78678882 836.59130202 506.07945814 C836.59246759 491.01111687 836.59336253 475.9427756 836.59400098 460.8744343 C836.59426262 454.8120968 836.59456324 448.7497593 836.59487724 442.6874218 C836.59491067 442.02391169 836.5949441 441.36040158 836.59497854 440.6767851 C836.59611026 418.61010217 836.60072513 396.54342149 836.60683203 374.47673943 C836.61270428 352.99338306 836.61497176 331.51002874 836.61350138 310.0266716 C836.6127377 297.24494999 836.61479604 284.46323589 836.62079754 271.68151564 C836.62452715 263.16030321 836.62467808 254.63909573 836.62183181 246.11788297 C836.62031147 241.25177016 836.62042961 236.38567161 836.62488318 231.51956028 C836.62889495 227.10297291 836.62840414 222.68641111 836.62413998 218.26982418 C836.62341886 216.67215718 836.62441633 215.07448836 836.62723524 213.47682368 C836.63079363 211.32562849 836.6283191 209.17452661 836.6241985 207.02333456 C836.62435448 205.82680719 836.62451046 204.63027983 836.62467116 203.39749405 C836.80126892 200.82691455 836.80126892 200.82691455 835.5 199.75 C833.45262037 199.65056119 831.40173881 199.62325052 829.351946 199.6223495 C828.37144538 199.61987333 828.37144538 199.61987333 827.37113667 199.61734714 C825.14907129 199.61298374 822.92707095 199.61583537 820.70500374 199.61857224 C819.10164333 199.61692441 817.49828331 199.61483898 815.89492399 199.61235213 C811.44777148 199.6067523 807.0006381 199.60746391 802.55348318 199.60912972 C797.73091474 199.60985726 792.90835186 199.6048463 788.08578575 199.6005547 C778.50238644 199.59295259 768.9189927 199.59078053 759.33559069 199.59022565 C747.86445794 199.58931419 736.39333038 199.58265319 724.92219985 199.57587883 C697.19287822 199.55979448 669.46355713 199.55391298 641.73423168 199.54913008 C628.62588717 199.54679676 615.51754311 199.54319443 602.40919895 199.5394347 C558.27280722 199.52679889 514.1364157 199.51598501 470.0000222 199.51259424 C467.88968216 199.512432 465.77934212 199.51226644 463.66900208 199.51209986 C459.43652286 199.51176605 455.20404363 199.51143557 450.97156441 199.5111053 C446.01612206 199.51071839 441.06067972 199.51032879 436.10523737 199.50993423 C434.68693743 199.50982182 433.26863748 199.5097104 431.85033754 199.50959998 C386.28553923 199.50604945 340.72075668 199.49096713 295.15596439 199.46766224 C262.42323572 199.45092731 229.69051002 199.43544838 196.95777702 199.43092728 C196.28502712 199.43083379 195.61227721 199.4307403 194.91914094 199.43064399 C179.49028497 199.42853466 164.06142911 199.42744772 148.63257301 199.42706418 C143.35397521 199.42689272 138.07537742 199.42667728 132.79677963 199.42642975 C131.49696695 199.42637398 130.19715427 199.42631821 128.85795332 199.42626075 C107.89550558 199.42510774 86.93307407 199.41406463 65.97063182 199.39954269 C44.92087781 199.38521185 23.87114473 199.38192133 2.82138719 199.38998267 C-9.69999258 199.39445498 -22.221305 199.39051472 -34.74267599 199.37474416 C-43.09286872 199.36504677 -51.44301389 199.36612184 -59.79320611 199.37618039 C-64.56001546 199.38161057 -69.32669484 199.38216135 -74.0934938 199.36967167 C-78.42233969 199.35842336 -82.75094854 199.36075594 -87.07978579 199.37433875 C-88.64341934 199.37679234 -90.20707062 199.37412073 -91.77068471 199.36594227 C-93.88116692 199.35562139 -95.9907976 199.36352794 -98.10124767 199.37625384 C-99.85967159 199.37588754 -99.85967159 199.37588754 -101.65361922 199.37551384 C-104.44970302 199.55275564 -104.44970302 199.55275564 -106.3766348 200.86695317 Z " fill="#000000" transform="translate(272.5,5.25)"/>
<path d="M0 0 C1.26531181 -0.00842105 2.53062363 -0.0168421 3.83427823 -0.02551833 C7.32742062 -0.04791898 10.81954992 -0.03331622 14.31266442 -0.01235043 C18.11997393 0.00383946 21.92714298 -0.01492748 25.7344383 -0.02914459 C32.40087856 -0.04923982 39.06702203 -0.04711396 45.7334671 -0.03027058 C55.64662338 -0.00529267 65.55954129 -0.01470207 75.4727052 -0.0308541 C93.1781342 -0.05856496 110.88342692 -0.05213109 128.58885805 -0.03133909 C144.08192664 -0.0132546 159.5749471 -0.00674727 175.06802559 -0.01170254 C176.60969489 -0.01217232 176.60969489 -0.01217232 178.18250903 -0.01265159 C182.35460271 -0.01393785 186.52669637 -0.01527706 190.69879002 -0.01669645 C229.83218416 -0.02983716 268.96549391 -0.00880309 308.09886931 0.0281208 C342.86880851 0.06073171 377.63864211 0.06526339 412.40859032 0.04546642 C421.31325143 0.04042358 430.21791255 0.03541902 439.12257385 0.03072357 C440.76696394 0.0298563 440.76696394 0.0298563 442.44457403 0.02897151 C471.49749437 0.01410902 500.55040753 0.02239084 529.6033262 0.03778905 C532.72918115 0.03941839 535.85503611 0.04103662 538.98089108 0.04263906 C541.05450254 0.04370258 543.12811399 0.04478227 545.20172543 0.04587827 C560.68668334 0.05381302 576.17160869 0.04981965 591.65656471 0.04021168 C609.26140416 0.02939063 626.86613475 0.03665259 644.47095229 0.06766746 C654.3248227 0.08453634 664.17847076 0.08769165 674.0323429 0.07108658 C680.61301882 0.06138884 687.19350919 0.06985662 693.77415063 0.09314947 C697.52442876 0.10592134 701.2742603 0.11084226 705.02453144 0.09376494 C709.06573063 0.07556302 713.10582067 0.09603194 717.14698792 0.12025452 C718.89048045 0.10312454 718.89048045 0.10312454 720.66919506 0.08564851 C728.0454108 0.17253533 733.84242476 1.44110306 739.94765282 5.75225353 C746.53405854 12.7979155 749.06889991 19.58440686 749.07628727 29.23149204 C749.08112394 30.83566457 749.08112394 30.83566457 749.08605832 32.47224462 C749.08450972 33.63604984 749.08296111 34.79985507 749.08136559 35.99892712 C749.08476392 37.86637536 749.08476392 37.86637536 749.08823091 39.77154982 C749.09346218 43.22004611 749.09421646 46.66849021 749.09303653 50.11698675 C749.09283228 53.83895426 749.09835358 57.56091403 749.1030941 61.28287792 C749.11139568 68.57196154 749.11414871 75.86103706 749.11470648 83.15012501 C749.11518183 89.07525814 749.11723756 95.00038861 749.1204071 100.9255209 C749.12921202 117.72749422 749.13382669 134.52946115 749.13307663 151.3314368 C749.1330167 152.68974596 749.1330167 152.68974596 749.13295555 154.07549572 C749.13289423 155.43546474 749.13289423 155.43546474 749.13283167 156.82290788 C749.13242515 171.51878081 749.14199651 186.21462813 749.15609392 200.91049366 C749.17045767 216.00316969 749.17736412 231.09583322 749.17650014 246.18851626 C749.17616819 254.66070457 749.17891448 263.13286602 749.18967819 271.60504818 C749.19878313 278.81774672 749.20095846 286.03040622 749.19416877 293.24310802 C749.19090365 296.92205222 749.19084661 300.60092151 749.19952202 304.27985859 C749.2088356 308.27049998 749.20261086 312.26096791 749.19489098 316.25161266 C749.20260632 317.99062833 749.20260632 317.99062833 749.21047753 319.76477563 C749.1735375 328.39706106 748.66336221 335.83323689 742.94765282 342.75225353 C737.73281394 347.25071051 733.8263896 349.87546643 726.79447681 349.8810547 C725.71902208 349.88432689 724.64356735 349.88759909 723.53552309 349.89097044 C721.75310575 349.888745 721.75310575 349.888745 719.93467999 349.88647461 C718.67240008 349.88882684 717.41012018 349.89117907 716.10958937 349.89360258 C712.58334605 349.90002094 709.05712545 349.90016274 705.5308774 349.89932517 C701.70303849 349.89949431 697.87520782 349.90539637 694.047373 349.91056603 C686.44519746 349.91990636 678.84302776 349.92381648 671.2408472 349.926085 C662.13914811 349.92904333 653.03745678 349.93773852 643.93576175 349.94649928 C621.93469762 349.96735927 599.93363213 349.97781569 577.93256042 349.98662889 C567.52882506 349.99083295 557.12509029 349.99605524 546.72135542 350.00131341 C511.12278466 350.01920443 475.52421374 350.03420164 439.92563915 350.04163361 C437.69009597 350.04210837 435.4545528 350.04258425 433.21900962 350.04306127 C432.11035892 350.04329764 431.00170822 350.04353402 429.85946205 350.04377756 C424.24229321 350.04497878 418.62512438 350.04619422 413.00795555 350.04741955 C411.33582641 350.04777977 411.33582641 350.04777977 409.62991688 350.04814728 C373.47501692 350.05604279 337.32014974 350.0794794 301.16526409 350.11197549 C262.95883064 350.14625297 224.75241637 350.16598279 186.54596728 350.16927785 C182.35391628 350.1696954 178.16186529 350.17017497 173.9698143 350.17070103 C172.42146251 350.17088581 172.42146251 350.17088581 170.84183089 350.17107433 C154.21163332 350.1734089 137.58147375 350.18908311 120.95128973 350.20954287 C104.24361129 350.22977229 87.53597862 350.23529185 70.8282902 350.22577224 C60.89629845 350.22054611 50.96445876 350.22648711 41.03248882 350.24830691 C34.40200138 350.26177561 27.77161906 350.26077293 21.14113067 350.24790495 C17.3606268 350.24098205 13.58041445 350.24042781 9.79993615 350.25746504 C5.72967739 350.27565912 1.66009998 350.26299595 -2.41016865 350.24723816 C-3.58674104 350.25746037 -4.76331343 350.26768257 -5.97553954 350.27821454 C-15.61293409 350.19631765 -22.15450975 347.65009097 -29.05234718 340.75225353 C-32.77795034 334.89603388 -34.17431697 329.36133453 -34.18377495 322.43288422 C-34.18761609 321.3736271 -34.19145724 320.31436999 -34.19541478 319.22301418 C-34.1945483 318.06544225 -34.19368182 316.90787032 -34.19278908 315.71522045 C-34.1957602 314.48068762 -34.19873132 313.24615479 -34.20179248 311.97421187 C-34.20896612 308.55012249 -34.21165128 305.12608329 -34.21238995 301.70199001 C-34.21424291 298.00791321 -34.22179149 294.31384725 -34.22852516 290.61977673 C-34.24209932 282.54321416 -34.2481318 274.46665657 -34.25253582 266.39008451 C-34.25529986 261.34542342 -34.25953751 256.30076426 -34.26403999 251.25610447 C-34.27623158 237.28434939 -34.28653104 223.31259585 -34.28991508 209.34083557 C-34.29013465 208.44684059 -34.29035422 207.5528456 -34.29058044 206.63175986 C-34.29079871 205.73564572 -34.29101699 204.83953157 -34.29124188 203.91626245 C-34.29168535 202.10044372 -34.29213191 200.28462499 -34.29258156 198.46880627 C-34.29280299 197.5681006 -34.29302442 196.66739494 -34.29325256 195.73939516 C-34.29719967 181.14826213 -34.31465153 166.55717906 -34.33794108 151.96606532 C-34.3616682 136.9796323 -34.37411756 121.99322433 -34.375283 107.00677222 C-34.37619901 98.59485126 -34.38193259 90.18299541 -34.40010262 81.77109241 C-34.41552198 74.60745587 -34.42061325 67.44390457 -34.41236451 60.28025458 C-34.40846446 56.62736108 -34.40935586 52.97463912 -34.42342186 49.32176685 C-34.43855323 45.35583934 -34.4302751 41.39015171 -34.41983986 37.42420483 C-34.42789626 36.27778651 -34.43595267 35.13136819 -34.44425321 33.95020992 C-34.38819058 24.82772985 -33.16783007 15.88629802 -27.08780432 8.69647765 C-19.40744584 1.36036729 -10.19180128 -0.12618495 0 0 Z " fill="#000000" transform="translate(292.05234718322754,754.2477464675903)"/>
<path d="M0 0 C2.34756987 2.09502826 4.62107125 4.2471829 6.890625 6.42578125 C8.19850343 7.53541826 9.51091968 8.63973201 10.828125 9.73828125 C25.7699205 22.88706129 37.81549233 39.78877417 46.890625 57.42578125 C47.43928223 58.47838135 47.43928223 58.47838135 47.99902344 59.55224609 C56.65036136 76.3364218 62.13148187 93.74697774 64.890625 112.42578125 C64.9848877 113.05919434 65.07915039 113.69260742 65.17626953 114.34521484 C70.81644457 157.41839419 60.50421092 202.50361938 34.265625 237.34375 C33.481875 238.36082031 32.698125 239.37789062 31.890625 240.42578125 C31.189375 241.35003906 30.488125 242.27429688 29.765625 243.2265625 C26.08300895 247.96649214 22.19633742 252.3032928 17.84765625 256.44140625 C15.74699442 258.50303696 15.74699442 258.50303696 13.57421875 261.3203125 C10.80276844 264.6907248 7.6081272 267.23974159 4.140625 269.86328125 C3.57085938 270.30220703 3.00109375 270.74113281 2.4140625 271.19335938 C1.22165771 272.11151107 0.02632009 273.02586405 -1.17163086 273.93676758 C-2.53688697 274.98586636 -3.89092717 276.04964161 -5.23657227 277.1237793 C-45.99459627 309.54240631 -99.65292289 319.8806012 -150.546875 314.23828125 C-199.87473059 308.12325783 -247.92923285 282.4023697 -279.1159668 243.34106445 C-285.71980946 234.83424084 -291.23512759 226.01689929 -296.109375 216.42578125 C-296.68147705 215.31614014 -296.68147705 215.31614014 -297.26513672 214.18408203 C-306.5840402 195.94977398 -311.67854678 177.94218074 -314.74975586 157.72851562 C-315.02620222 155.95835806 -315.35058008 154.19563537 -315.6953125 152.4375 C-321.12605659 112.93652173 -306.59313876 68.12886207 -283.18847656 36.44287109 C-277.26046307 28.70753642 -270.87163764 21.43971386 -264.109375 14.42578125 C-263.19285156 13.44931641 -263.19285156 13.44931641 -262.2578125 12.453125 C-195.91740514 -56.55976323 -72.69464639 -61.49037832 0 0 Z " fill="#000000" transform="translate(546.109375,340.57421875)"/>
<path d="M0 0 C0.7532959 0.16097168 1.5065918 0.32194336 2.28271484 0.48779297 C25.5841849 5.5869795 47.95718381 15.20174467 66 31 C66.94230469 31.82113281 67.88460937 32.64226562 68.85546875 33.48828125 C80.16969409 43.51935508 89.99668743 54.1153567 98 67 C98.639375 67.97324219 99.27875 68.94648438 99.9375 69.94921875 C105.04799334 77.75336795 108.36429597 85.6944999 111.5 94.4375 C111.79519531 95.22576172 112.09039063 96.01402344 112.39453125 96.82617188 C117.15154679 110.14371977 118.53965815 123.4040143 118.375 137.4375 C118.37001495 138.15811615 118.36502991 138.8787323 118.3598938 139.6211853 C118.27347191 150.29864607 118.0120594 160.67974651 115 171 C114.77425293 171.77520996 114.54850586 172.55041992 114.31591797 173.34912109 C107.56538716 195.68985266 95.47527535 219.13350867 77.25 234.375 C74.08380778 237.06293374 70.99943709 239.81861153 67.9375 242.625 C62.12995484 247.84824946 56.3004438 251.98608246 49.4296875 255.6875 C47.7761773 256.58071452 46.13575682 257.49849763 44.5078125 258.4375 C34.23685845 264.28920082 23.46383693 268.4582646 12.125 271.6875 C11.46749756 271.87771729 10.80999512 272.06793457 10.13256836 272.26391602 C-3.55101657 275.98166521 -16.9234363 277.49927414 -31.06616211 277.39111328 C-33.56484322 277.37498488 -36.06191316 277.39109577 -38.56054688 277.41015625 C-49.06630089 277.42404139 -58.74970509 276.33779925 -69 274 C-69.8974292 273.80664062 -70.7948584 273.61328125 -71.71948242 273.4140625 C-87.74253312 269.84331667 -103.25356635 264.06014945 -117 255 C-118.26070312 254.25556641 -118.26070312 254.25556641 -119.546875 253.49609375 C-138.33606482 242.22801026 -155.21041706 225.38834906 -167 207 C-168.04220703 205.44345703 -168.04220703 205.44345703 -169.10546875 203.85546875 C-185.96717697 176.88325851 -190.38302492 141.26770109 -183.90258789 110.45678711 C-177.76904786 84.21872395 -165.45471967 62.55552751 -147 43 C-146.32710937 42.26265625 -145.65421875 41.5253125 -144.9609375 40.765625 C-109.71406799 3.53859429 -49.0231521 -10.95325364 0 0 Z " fill="#F78A76" transform="translate(900,340)"/>
<path d="M0 0 C12.09976829 15.74427681 10.15265124 46.70583642 7.8125 65 C4.13879798 90.96215863 -6.98945653 113.14948628 -24 133 C-24.69738281 133.83273437 -25.39476562 134.66546875 -26.11328125 135.5234375 C-35.55593969 146.46794473 -46.89262756 155.18786207 -59 163 C-60.0415625 163.67804688 -61.083125 164.35609375 -62.15625 165.0546875 C-82.72263474 177.63935626 -108.95462411 185.05527046 -133.05859375 185.203125 C-133.80601334 185.20882507 -134.55343292 185.21452515 -135.32350159 185.22039795 C-136.89916601 185.2297838 -138.4748495 185.23635616 -140.05053711 185.24023438 C-142.40060082 185.24984904 -144.74975341 185.28089534 -147.09960938 185.3125 C-161.40160846 185.4136243 -174.89590971 183.26725383 -188.625 179.1875 C-189.50397949 178.93033203 -190.38295898 178.67316406 -191.28857422 178.40820312 C-213.45767589 171.76837745 -233.17353022 160.92665856 -250 145 C-251.32904106 143.86993246 -252.66221211 142.74469921 -254 141.625 C-277.22884031 121.24718436 -290.44662076 93.14065211 -295 63 C-295.13148438 62.19691406 -295.26296875 61.39382813 -295.3984375 60.56640625 C-296.89256605 49.88540623 -296.80668371 38.42482521 -294 28 C-291.43995804 27.14665268 -289.49635145 26.76438426 -286.8487854 26.50492859 C-285.99906851 26.41995369 -285.14935162 26.33497879 -284.27388573 26.24742889 C-283.33997316 26.15764015 -282.4060606 26.06785141 -281.44384766 25.9753418 C-279.95556678 25.82809788 -279.95556678 25.82809788 -278.43721962 25.67787933 C-275.09649063 25.34827502 -271.75528903 25.02373779 -268.4140625 24.69921875 C-266.02452963 24.46465421 -263.63502424 24.22980965 -261.24554443 23.9947052 C-255.412292 23.42165702 -249.57871354 22.8520064 -243.74497461 22.28393775 C-238.98472693 21.82030442 -234.22464285 21.35502258 -229.46466064 20.88867188 C-182.85316476 16.32232316 -136.23465869 11.82849561 -89.61214256 7.37613201 C-84.6036677 6.89780058 -79.59524446 6.41892961 -74.5868187 5.94008446 C-71.02060105 5.5994489 -67.45428767 5.25982855 -63.88796997 4.92024231 C-53.15077885 3.89539754 -42.41684669 2.84805449 -31.68847656 1.734375 C-30.73613695 1.63617714 -29.78379734 1.53797928 -28.80259895 1.43680573 C-24.41741463 0.9845299 -20.03308683 0.52619711 -15.6499939 0.05407715 C-14.14120428 -0.10290865 -12.63238652 -0.25962442 -11.12353516 -0.41601562 C-9.83387848 -0.55382446 -8.5442218 -0.6916333 -7.21548462 -0.83361816 C-4.43858421 -0.97730593 -2.55686122 -1.03184736 0 0 Z " fill="#F78A76" transform="translate(565,432)"/>
<path d="M0 0 C1.51787109 1.09828125 1.51787109 1.09828125 3.06640625 2.21875 C21.49512184 15.74989481 36.29004942 32.08611469 49 51 C49.39106934 51.58185059 49.78213867 52.16370117 50.18505859 52.76318359 C65.93590959 76.51446684 76.04657748 105.26990327 76.203125 133.8984375 C76.20882507 134.73226959 76.21452515 135.56610168 76.22039795 136.42520142 C76.22979396 138.1849849 76.23636029 139.94478554 76.24023438 141.70458984 C76.24984766 144.33334135 76.2808841 146.96127813 76.3125 149.58984375 C76.56469014 189.83215032 60.88236583 229.20658907 33.30078125 258.546875 C31.29192611 260.68874432 29.38869907 262.87802312 27.5 265.125 C-3.75329032 300.77103389 -52.99862575 319.71710017 -99.40966797 322.859375 C-121.26202396 324.0457046 -142.76130142 322.27822889 -164 317 C-164.6894873 316.83161621 -165.37897461 316.66323242 -166.08935547 316.48974609 C-194.08911184 309.47130199 -220.11190168 295.76122713 -242 277 C-242.87269531 276.25492188 -243.74539063 275.50984375 -244.64453125 274.7421875 C-247.14684878 272.5433006 -249.58068034 270.28978129 -252 268 C-252.93199219 267.13246094 -253.86398437 266.26492188 -254.82421875 265.37109375 C-269.55865863 251.3731328 -279.95913748 235.11063266 -289 217 C-289.32581055 216.34966797 -289.65162109 215.69933594 -289.98730469 215.02929688 C-309.00419015 176.20771481 -309.7718238 131.11131026 -296.3671875 90.55078125 C-289.16299422 69.92336417 -278.44930609 50.42199504 -264 34 C-262.94039062 32.77603516 -262.94039062 32.77603516 -261.859375 31.52734375 C-259.6130008 28.97795145 -257.32082726 26.48178787 -255 24 C-254.11828125 23.05253906 -253.2365625 22.10507812 -252.328125 21.12890625 C-235.52461149 3.47842397 -214.2667549 -9.4146336 -192 -19 C-191.31035156 -19.30389648 -190.62070312 -19.60779297 -189.91015625 -19.92089844 C-130.79363819 -45.70869053 -52.0866638 -39.47620836 0 0 Z M-147 7 C-147.73154297 7.16628906 -148.46308594 7.33257812 -149.21679688 7.50390625 C-178.61998419 14.43740894 -204.30768372 28.10169237 -226 49 C-226.70511719 49.64195312 -227.41023437 50.28390625 -228.13671875 50.9453125 C-251.28917653 72.64193622 -265.0508056 106.1626403 -266.30859375 137.53125 C-267.16613776 171.61804011 -258.36909958 204.98460086 -234.56884766 230.35498047 C-234.05112793 230.89783691 -233.5334082 231.44069336 -233 232 C-232.41138184 232.61891113 -231.82276367 233.23782227 -231.21630859 233.87548828 C-220.73169604 244.8038367 -210.00607982 254.15150356 -197 262 C-195.98679687 262.63808594 -194.97359375 263.27617188 -193.9296875 263.93359375 C-173.4950148 276.32483145 -148.51043076 283.99500805 -124.55859375 284.23828125 C-123.76232574 284.24816574 -122.96605774 284.25805023 -122.1456604 284.26823425 C-88.91068916 284.59565946 -54.45093011 280.72825335 -27 260 C-25.9275 259.4225 -24.855 258.845 -23.75 258.25 C-15.07193008 253.41368238 -7.8375943 246.10481062 -1 239 C-0.154375 238.175 0.69125 237.35 1.5625 236.5 C16.63652309 221.0394635 26.80574986 203.65055792 33.4375 183.125 C33.67243164 182.40159424 33.90736328 181.67818848 34.14941406 180.93286133 C37.53992554 169.74542921 38.35199762 158.42133894 38.31567383 146.79907227 C38.31251804 144.69950093 38.33606962 142.60135152 38.36132812 140.50195312 C38.42542247 127.15669256 36.37975812 114.44243145 31.75 101.875 C31.44553955 101.03372559 31.1410791 100.19245117 30.82739258 99.32568359 C25.99257832 86.27604078 19.45384006 75.00261967 11 64 C9.90171875 62.56333984 9.90171875 62.56333984 8.78125 61.09765625 C-17.44139342 27.98681846 -53.81081375 10.09451345 -95.34790039 4.39477539 C-101.29827937 3.75156643 -107.20680756 3.6595963 -113.1875 3.6875 C-115.08205933 3.69487183 -115.08205933 3.69487183 -117.01489258 3.70239258 C-127.25541114 3.8297216 -137.02022181 4.71015026 -147 7 Z " fill="#000000" transform="translate(980,333)"/>
<path d="M0 0 C4.16888358 3.49677848 8.11029524 7.19446196 12 11 C12.72058594 11.68191406 13.44117188 12.36382812 14.18359375 13.06640625 C17.3993754 16.1618468 19.85206788 19.04328293 22 23 C22.66 23.66 23.32 24.32 24 25 C22.77145798 25.11036591 22.77145798 25.11036591 21.51809692 25.22296143 C-34.39029916 30.25203471 -90.26176141 35.62800415 -146.12208557 41.16183853 C-157.98359837 42.33680243 -169.84547462 43.50804622 -181.70771027 44.6756897 C-184.95605877 44.99567153 -188.20432041 45.31652451 -191.45257568 45.63745117 C-196.41756609 46.12744422 -201.38299573 46.61271989 -206.34882164 47.09416962 C-208.13499123 47.26797981 -209.92101992 47.44324548 -211.7068882 47.62012482 C-214.13062991 47.85990055 -216.55483967 48.09422403 -218.97924805 48.32714844 C-219.66650404 48.39636253 -220.35376003 48.46557663 -221.06184196 48.53688812 C-226.06372204 49.00868659 -230.98207589 49.05277208 -236 49 C-236.33 48.34 -236.66 47.68 -237 47 C-235.97835603 44.80024407 -234.90856921 42.77443866 -233.6875 40.6875 C-233.32793213 40.06665527 -232.96836426 39.44581055 -232.59790039 38.80615234 C-228.61366039 32.0986261 -223.93448733 26.0283392 -219 20 C-218.36964844 19.2265625 -217.73929687 18.453125 -217.08984375 17.65625 C-213.11396745 12.94678377 -208.7410537 8.92632052 -204 5 C-203.28457031 4.38511719 -202.56914062 3.77023437 -201.83203125 3.13671875 C-145.40405988 -44.02836955 -57.57009268 -46.44740027 0 0 Z " fill="#8D8D8D" transform="translate(521,370)"/>
<path d="M0 0 C12.499571 -0.02312143 24.99913695 -0.04091406 37.49872494 -0.05181217 C43.30213613 -0.05704144 49.10553275 -0.06413987 54.90893555 -0.07543945 C60.50450853 -0.08626678 66.10006745 -0.0922765 71.6956501 -0.09487724 C73.83558944 -0.09673177 75.97552796 -0.10035291 78.11546135 -0.10573006 C81.10164966 -0.11293844 84.08777907 -0.11399103 87.07397461 -0.11352539 C87.96805023 -0.11712067 88.86212585 -0.12071594 89.78329468 -0.12442017 C95.88594784 -0.11405216 95.88594784 -0.11405216 97 1 C97.09532328 4.07454761 97.1255138 7.12659158 97.11352539 10.20141602 C97.11367142 11.16716553 97.11381744 12.13291504 97.1139679 13.12792969 C97.11326834 16.33661099 97.10547397 19.54523503 97.09765625 22.75390625 C97.09579222 24.97208118 97.09436825 27.19025652 97.09336853 29.40843201 C97.08954216 35.25940071 97.07971086 41.11034477 97.06866455 46.96130371 C97.05845299 52.92667304 97.05387146 58.89204633 97.04882812 64.85742188 C97.03808869 76.57162544 97.02101085 88.28581067 97 100 C84.500429 100.02312143 72.00086305 100.04091406 59.50127506 100.05181217 C53.69786387 100.05704144 47.89446725 100.06413987 42.09106445 100.07543945 C36.49549147 100.08626678 30.89993255 100.0922765 25.3043499 100.09487724 C23.16441056 100.09673177 21.02447204 100.10035291 18.88453865 100.10573006 C15.89835034 100.11293844 12.91222093 100.11399103 9.92602539 100.11352539 C8.58491196 100.1189183 8.58491196 100.1189183 7.21670532 100.12442017 C1.11405216 100.11405216 1.11405216 100.11405216 0 99 C-0.09532328 95.92545239 -0.1255138 92.87340842 -0.11352539 89.79858398 C-0.11367142 88.83283447 -0.11381744 87.86708496 -0.1139679 86.87207031 C-0.11326834 83.66338901 -0.10547397 80.45476497 -0.09765625 77.24609375 C-0.09579222 75.02791882 -0.09436825 72.80974348 -0.09336853 70.59156799 C-0.08954216 64.74059929 -0.07971086 58.88965523 -0.06866455 53.03869629 C-0.05845299 47.07332696 -0.05387146 41.10795367 -0.04882812 35.14257812 C-0.03808869 23.42837456 -0.02101085 11.71418933 0 0 Z " fill="#E9EBEB" transform="translate(894,955)"/>
<path d="M0 0 C12.499571 -0.02312143 24.99913695 -0.04091406 37.49872494 -0.05181217 C43.30213613 -0.05704144 49.10553275 -0.06413987 54.90893555 -0.07543945 C60.50450853 -0.08626678 66.10006745 -0.0922765 71.6956501 -0.09487724 C73.83558944 -0.09673177 75.97552796 -0.10035291 78.11546135 -0.10573006 C81.10164966 -0.11293844 84.08777907 -0.11399103 87.07397461 -0.11352539 C87.96805023 -0.11712067 88.86212585 -0.12071594 89.78329468 -0.12442017 C95.88594784 -0.11405216 95.88594784 -0.11405216 97 1 C97.09532328 4.07454761 97.1255138 7.12659158 97.11352539 10.20141602 C97.11367142 11.16716553 97.11381744 12.13291504 97.1139679 13.12792969 C97.11326834 16.33661099 97.10547397 19.54523503 97.09765625 22.75390625 C97.09579222 24.97208118 97.09436825 27.19025652 97.09336853 29.40843201 C97.08954216 35.25940071 97.07971086 41.11034477 97.06866455 46.96130371 C97.05845299 52.92667304 97.05387146 58.89204633 97.04882812 64.85742188 C97.03808869 76.57162544 97.02101085 88.28581067 97 100 C84.500429 100.02312143 72.00086305 100.04091406 59.50127506 100.05181217 C53.69786387 100.05704144 47.89446725 100.06413987 42.09106445 100.07543945 C36.49549147 100.08626678 30.89993255 100.0922765 25.3043499 100.09487724 C23.16441056 100.09673177 21.02447204 100.10035291 18.88453865 100.10573006 C15.89835034 100.11293844 12.91222093 100.11399103 9.92602539 100.11352539 C8.58491196 100.1189183 8.58491196 100.1189183 7.21670532 100.12442017 C1.11405216 100.11405216 1.11405216 100.11405216 0 99 C-0.09532328 95.92545239 -0.1255138 92.87340842 -0.11352539 89.79858398 C-0.11367142 88.83283447 -0.11381744 87.86708496 -0.1139679 86.87207031 C-0.11326834 83.66338901 -0.10547397 80.45476497 -0.09765625 77.24609375 C-0.09579222 75.02791882 -0.09436825 72.80974348 -0.09336853 70.59156799 C-0.08954216 64.74059929 -0.07971086 58.88965523 -0.06866455 53.03869629 C-0.05845299 47.07332696 -0.05387146 41.10795367 -0.04882812 35.14257812 C-0.03808869 23.42837456 -0.02101085 11.71418933 0 0 Z " fill="#E9EBEB" transform="translate(894,805)"/>
<path d="M0 0 C12.35191641 -0.0231325 24.7038277 -0.04091974 37.05576134 -0.05181217 C42.79076272 -0.057039 48.52574932 -0.06413305 54.26074219 -0.07543945 C59.79148123 -0.08627539 65.32220603 -0.09227835 70.85295486 -0.09487724 C72.96694793 -0.09673021 75.08094019 -0.10034838 77.19492722 -0.10573006 C80.14738422 -0.11294983 83.09978174 -0.11399054 86.05224609 -0.11352539 C87.37394051 -0.1189183 87.37394051 -0.1189183 88.72233582 -0.12442017 C94.77189568 -0.11405216 94.77189568 -0.11405216 97 1 C97 33.67 97 66.34 97 100 C65.32 100 33.64 100 1 100 C-0.72439077 96.55121847 -0.1285325 92.57188932 -0.11352539 88.77685547 C-0.11367142 87.8207135 -0.11381744 86.86457153 -0.1139679 85.87945557 C-0.1132694 82.70867673 -0.1054799 79.53795612 -0.09765625 76.3671875 C-0.09579185 74.17286206 -0.09436805 71.97853621 -0.09336853 69.78421021 C-0.0895451 64.00065976 -0.07971628 58.2171343 -0.06866455 52.43359375 C-0.0584467 46.53515969 -0.05387011 40.6367216 -0.04882812 34.73828125 C-0.03809388 23.15884317 -0.02101953 11.57942366 0 0 Z " fill="#EAECEC" transform="translate(454,955)"/>
<path d="M0 0 C12.36918715 -0.02312154 24.73836919 -0.04091412 37.10757351 -0.05181217 C42.85045062 -0.05704141 48.59331301 -0.0641398 54.33618164 -0.07543945 C59.87339995 -0.08626687 65.41060404 -0.09227652 70.94783211 -0.09487724 C73.06544277 -0.09673176 75.18305262 -0.10035286 77.30065727 -0.10573006 C80.25571274 -0.11293856 83.21070871 -0.11399102 86.16577148 -0.11352539 C87.05049637 -0.11712067 87.93522125 -0.12071594 88.84675598 -0.12442017 C94.88594784 -0.11405216 94.88594784 -0.11405216 96 1 C96.09532328 4.07454761 96.1255138 7.12659158 96.11352539 10.20141602 C96.11367142 11.16716553 96.11381744 12.13291504 96.1139679 13.12792969 C96.11326834 16.33661099 96.10547397 19.54523503 96.09765625 22.75390625 C96.09579222 24.97208118 96.09436825 27.19025652 96.09336853 29.40843201 C96.08954216 35.25940071 96.07971086 41.11034477 96.06866455 46.96130371 C96.05845299 52.92667304 96.05387146 58.89204633 96.04882812 64.85742188 C96.03808869 76.57162544 96.02101085 88.28581067 96 100 C83.64809568 100.04626496 71.29621186 100.08183941 58.94423866 100.10362434 C53.209214 100.11407805 47.47424845 100.12826612 41.73925781 100.15087891 C36.20851431 100.1725508 30.67782781 100.18455666 25.14704514 100.18975449 C23.03304522 100.19346043 20.91904855 100.20069682 18.80507278 100.21146011 C15.85256365 100.22589992 12.90029245 100.2279811 9.94775391 100.22705078 C9.0666243 100.23424133 8.18549469 100.24143188 7.27766418 100.24884033 C1.22810432 100.22810432 1.22810432 100.22810432 -1 98 C-1.19367876 94.96712187 -1.26213211 92.02585398 -1.24291992 88.9921875 C-1.24481827 88.05876526 -1.24671661 87.12534302 -1.24867249 86.16363525 C-1.25238781 83.06733901 -1.24166526 79.97127552 -1.23046875 76.875 C-1.22927726 74.73030627 -1.22882372 72.58561201 -1.2290802 70.44091797 C-1.22751402 65.94169864 -1.21921413 61.44255873 -1.20581055 56.94335938 C-1.18882054 51.16594299 -1.18499614 45.38861398 -1.18575573 39.61117554 C-1.18548425 35.18122518 -1.18000659 30.75129407 -1.17275429 26.3213501 C-1.16956418 24.19061428 -1.16759942 22.05987627 -1.16686058 19.92913818 C-1.16470065 16.95532492 -1.15596389 13.98160568 -1.14526367 11.0078125 C-1.14571686 10.12047424 -1.14617004 9.23313599 -1.14663696 8.31890869 C-1.11447625 2.22895249 -1.11447625 2.22895249 0 0 Z " fill="#E9EBEB" transform="translate(748,955)"/>
<path d="M0 0 C12.36918715 -0.02312154 24.73836919 -0.04091412 37.10757351 -0.05181217 C42.85045062 -0.05704141 48.59331301 -0.0641398 54.33618164 -0.07543945 C59.87339995 -0.08626687 65.41060404 -0.09227652 70.94783211 -0.09487724 C73.06544277 -0.09673176 75.18305262 -0.10035286 77.30065727 -0.10573006 C80.25571274 -0.11293856 83.21070871 -0.11399102 86.16577148 -0.11352539 C87.05049637 -0.11712067 87.93522125 -0.12071594 88.84675598 -0.12442017 C94.88594784 -0.11405216 94.88594784 -0.11405216 96 1 C96.09532328 4.07454761 96.1255138 7.12659158 96.11352539 10.20141602 C96.11367142 11.16716553 96.11381744 12.13291504 96.1139679 13.12792969 C96.11326834 16.33661099 96.10547397 19.54523503 96.09765625 22.75390625 C96.09579222 24.97208118 96.09436825 27.19025652 96.09336853 29.40843201 C96.08954216 35.25940071 96.07971086 41.11034477 96.06866455 46.96130371 C96.05845299 52.92667304 96.05387146 58.89204633 96.04882812 64.85742188 C96.03808869 76.57162544 96.02101085 88.28581067 96 100 C83.64809568 100.04626496 71.29621186 100.08183941 58.94423866 100.10362434 C53.209214 100.11407805 47.47424845 100.12826612 41.73925781 100.15087891 C36.20851431 100.1725508 30.67782781 100.18455666 25.14704514 100.18975449 C23.03304522 100.19346043 20.91904855 100.20069682 18.80507278 100.21146011 C15.85256365 100.22589992 12.90029245 100.2279811 9.94775391 100.22705078 C9.0666243 100.23424133 8.18549469 100.24143188 7.27766418 100.24884033 C1.22810432 100.22810432 1.22810432 100.22810432 -1 98 C-1.19367876 94.96712187 -1.26213211 92.02585398 -1.24291992 88.9921875 C-1.24481827 88.05876526 -1.24671661 87.12534302 -1.24867249 86.16363525 C-1.25238781 83.06733901 -1.24166526 79.97127552 -1.23046875 76.875 C-1.22927726 74.73030627 -1.22882372 72.58561201 -1.2290802 70.44091797 C-1.22751402 65.94169864 -1.21921413 61.44255873 -1.20581055 56.94335938 C-1.18882054 51.16594299 -1.18499614 45.38861398 -1.18575573 39.61117554 C-1.18548425 35.18122518 -1.18000659 30.75129407 -1.17275429 26.3213501 C-1.16956418 24.19061428 -1.16759942 22.05987627 -1.16686058 19.92913818 C-1.16470065 16.95532492 -1.15596389 13.98160568 -1.14526367 11.0078125 C-1.14571686 10.12047424 -1.14617004 9.23313599 -1.14663696 8.31890869 C-1.11447625 2.22895249 -1.11447625 2.22895249 0 0 Z " fill="#E9EBEB" transform="translate(748,805)"/>
<path d="M0 0 C12.36918715 -0.02312154 24.73836919 -0.04091412 37.10757351 -0.05181217 C42.85045062 -0.05704141 48.59331301 -0.0641398 54.33618164 -0.07543945 C59.87339995 -0.08626687 65.41060404 -0.09227652 70.94783211 -0.09487724 C73.06544277 -0.09673176 75.18305262 -0.10035286 77.30065727 -0.10573006 C80.25571274 -0.11293856 83.21070871 -0.11399102 86.16577148 -0.11352539 C87.05049637 -0.11712067 87.93522125 -0.12071594 88.84675598 -0.12442017 C94.88594784 -0.11405216 94.88594784 -0.11405216 96 1 C96.09532328 4.07454761 96.1255138 7.12659158 96.11352539 10.20141602 C96.11367142 11.16716553 96.11381744 12.13291504 96.1139679 13.12792969 C96.11326834 16.33661099 96.10547397 19.54523503 96.09765625 22.75390625 C96.09579222 24.97208118 96.09436825 27.19025652 96.09336853 29.40843201 C96.08954216 35.25940071 96.07971086 41.11034477 96.06866455 46.96130371 C96.05845299 52.92667304 96.05387146 58.89204633 96.04882812 64.85742188 C96.03808869 76.57162544 96.02101085 88.28581067 96 100 C83.63081285 100.02312154 71.26163081 100.04091412 58.89242649 100.05181217 C53.14954938 100.05704141 47.40668699 100.0641398 41.66381836 100.07543945 C36.12660005 100.08626687 30.58939596 100.09227652 25.05216789 100.09487724 C22.93455723 100.09673176 20.81694738 100.10035286 18.69934273 100.10573006 C15.74428726 100.11293856 12.78929129 100.11399102 9.83422852 100.11352539 C8.50714119 100.1189183 8.50714119 100.1189183 7.15324402 100.12442017 C1.11405216 100.11405216 1.11405216 100.11405216 0 99 C-0.09532328 95.92545239 -0.1255138 92.87340842 -0.11352539 89.79858398 C-0.11367142 88.83283447 -0.11381744 87.86708496 -0.1139679 86.87207031 C-0.11326834 83.66338901 -0.10547397 80.45476497 -0.09765625 77.24609375 C-0.09579222 75.02791882 -0.09436825 72.80974348 -0.09336853 70.59156799 C-0.08954216 64.74059929 -0.07971086 58.88965523 -0.06866455 53.03869629 C-0.05845299 47.07332696 -0.05387146 41.10795367 -0.04882812 35.14257812 C-0.03808869 23.42837456 -0.02101085 11.71418933 0 0 Z " fill="#E9EBEB" transform="translate(601,955)"/>
<path d="M0 0 C12.36918715 -0.02312154 24.73836919 -0.04091412 37.10757351 -0.05181217 C42.85045062 -0.05704141 48.59331301 -0.0641398 54.33618164 -0.07543945 C59.87339995 -0.08626687 65.41060404 -0.09227652 70.94783211 -0.09487724 C73.06544277 -0.09673176 75.18305262 -0.10035286 77.30065727 -0.10573006 C80.25571274 -0.11293856 83.21070871 -0.11399102 86.16577148 -0.11352539 C87.05049637 -0.11712067 87.93522125 -0.12071594 88.84675598 -0.12442017 C94.88594784 -0.11405216 94.88594784 -0.11405216 96 1 C96.09532328 4.07454761 96.1255138 7.12659158 96.11352539 10.20141602 C96.11367142 11.16716553 96.11381744 12.13291504 96.1139679 13.12792969 C96.11326834 16.33661099 96.10547397 19.54523503 96.09765625 22.75390625 C96.09579222 24.97208118 96.09436825 27.19025652 96.09336853 29.40843201 C96.08954216 35.25940071 96.07971086 41.11034477 96.06866455 46.96130371 C96.05845299 52.92667304 96.05387146 58.89204633 96.04882812 64.85742188 C96.03808869 76.57162544 96.02101085 88.28581067 96 100 C83.63081285 100.02312154 71.26163081 100.04091412 58.89242649 100.05181217 C53.14954938 100.05704141 47.40668699 100.0641398 41.66381836 100.07543945 C36.12660005 100.08626687 30.58939596 100.09227652 25.05216789 100.09487724 C22.93455723 100.09673176 20.81694738 100.10035286 18.69934273 100.10573006 C15.74428726 100.11293856 12.78929129 100.11399102 9.83422852 100.11352539 C8.50714119 100.1189183 8.50714119 100.1189183 7.15324402 100.12442017 C1.11405216 100.11405216 1.11405216 100.11405216 0 99 C-0.09532328 95.92545239 -0.1255138 92.87340842 -0.11352539 89.79858398 C-0.11367142 88.83283447 -0.11381744 87.86708496 -0.1139679 86.87207031 C-0.11326834 83.66338901 -0.10547397 80.45476497 -0.09765625 77.24609375 C-0.09579222 75.02791882 -0.09436825 72.80974348 -0.09336853 70.59156799 C-0.08954216 64.74059929 -0.07971086 58.88965523 -0.06866455 53.03869629 C-0.05845299 47.07332696 -0.05387146 41.10795367 -0.04882812 35.14257812 C-0.03808869 23.42837456 -0.02101085 11.71418933 0 0 Z " fill="#E9EBEB" transform="translate(601,805)"/>
<path d="M0 0 C12.23880329 -0.02312166 24.47760143 -0.04091418 36.71642208 -0.05181217 C42.39876512 -0.05704139 48.08109327 -0.06413973 53.76342773 -0.07543945 C59.24229136 -0.08626696 64.72114062 -0.09227654 70.20001411 -0.09487724 C72.29529611 -0.09673174 74.39057728 -0.10035282 76.4858532 -0.10573006 C79.40977584 -0.11293868 82.33363833 -0.11399102 85.25756836 -0.11352539 C86.57062958 -0.1189183 86.57062958 -0.1189183 87.91021729 -0.12442017 C93.88594784 -0.11405216 93.88594784 -0.11405216 95 1 C95.09532328 4.07454761 95.1255138 7.12659158 95.11352539 10.20141602 C95.11367142 11.16716553 95.11381744 12.13291504 95.1139679 13.12792969 C95.11326834 16.33661099 95.10547397 19.54523503 95.09765625 22.75390625 C95.09579222 24.97208118 95.09436825 27.19025652 95.09336853 29.40843201 C95.08954216 35.25940071 95.07971086 41.11034477 95.06866455 46.96130371 C95.05845299 52.92667304 95.05387146 58.89204633 95.04882812 64.85742188 C95.03808869 76.57162544 95.02101085 88.28581067 95 100 C82.76119671 100.02312166 70.52239857 100.04091418 58.28357792 100.05181217 C52.60123488 100.05704139 46.91890673 100.06413973 41.23657227 100.07543945 C35.75770864 100.08626696 30.27885938 100.09227654 24.79998589 100.09487724 C22.70470389 100.09673174 20.60942272 100.10035282 18.5141468 100.10573006 C15.59022416 100.11293868 12.66636167 100.11399102 9.74243164 100.11352539 C8.42937042 100.1189183 8.42937042 100.1189183 7.08978271 100.12442017 C1.11405216 100.11405216 1.11405216 100.11405216 0 99 C-0.09532328 95.92545239 -0.1255138 92.87340842 -0.11352539 89.79858398 C-0.11367142 88.83283447 -0.11381744 87.86708496 -0.1139679 86.87207031 C-0.11326834 83.66338901 -0.10547397 80.45476497 -0.09765625 77.24609375 C-0.09579222 75.02791882 -0.09436825 72.80974348 -0.09336853 70.59156799 C-0.08954216 64.74059929 -0.07971086 58.88965523 -0.06866455 53.03869629 C-0.05845299 47.07332696 -0.05387146 41.10795367 -0.04882812 35.14257812 C-0.03808869 23.42837456 -0.02101085 11.71418933 0 0 Z " fill="#E9EBEB" transform="translate(309,955)"/>
<path d="M0 0 C12.23880329 -0.02312166 24.47760143 -0.04091418 36.71642208 -0.05181217 C42.39876512 -0.05704139 48.08109327 -0.06413973 53.76342773 -0.07543945 C59.24229136 -0.08626696 64.72114062 -0.09227654 70.20001411 -0.09487724 C72.29529611 -0.09673174 74.39057728 -0.10035282 76.4858532 -0.10573006 C79.40977584 -0.11293868 82.33363833 -0.11399102 85.25756836 -0.11352539 C86.57062958 -0.1189183 86.57062958 -0.1189183 87.91021729 -0.12442017 C93.88594784 -0.11405216 93.88594784 -0.11405216 95 1 C95.09532328 4.07454761 95.1255138 7.12659158 95.11352539 10.20141602 C95.11367142 11.16716553 95.11381744 12.13291504 95.1139679 13.12792969 C95.11326834 16.33661099 95.10547397 19.54523503 95.09765625 22.75390625 C95.09579222 24.97208118 95.09436825 27.19025652 95.09336853 29.40843201 C95.08954216 35.25940071 95.07971086 41.11034477 95.06866455 46.96130371 C95.05845299 52.92667304 95.05387146 58.89204633 95.04882812 64.85742188 C95.03808869 76.57162544 95.02101085 88.28581067 95 100 C82.76119671 100.02312166 70.52239857 100.04091418 58.28357792 100.05181217 C52.60123488 100.05704139 46.91890673 100.06413973 41.23657227 100.07543945 C35.75770864 100.08626696 30.27885938 100.09227654 24.79998589 100.09487724 C22.70470389 100.09673174 20.60942272 100.10035282 18.5141468 100.10573006 C15.59022416 100.11293868 12.66636167 100.11399102 9.74243164 100.11352539 C8.42937042 100.1189183 8.42937042 100.1189183 7.08978271 100.12442017 C1.11405216 100.11405216 1.11405216 100.11405216 0 99 C-0.09532328 95.92545239 -0.1255138 92.87340842 -0.11352539 89.79858398 C-0.11367142 88.83283447 -0.11381744 87.86708496 -0.1139679 86.87207031 C-0.11326834 83.66338901 -0.10547397 80.45476497 -0.09765625 77.24609375 C-0.09579222 75.02791882 -0.09436825 72.80974348 -0.09336853 70.59156799 C-0.08954216 64.74059929 -0.07971086 58.88965523 -0.06866455 53.03869629 C-0.05845299 47.07332696 -0.05387146 41.10795367 -0.04882812 35.14257812 C-0.03808869 23.42837456 -0.02101085 11.71418933 0 0 Z " fill="#E9EBEB" transform="translate(309,805)"/>
<path d="M0 0 C11.25750463 7.51234653 17.91894844 22.18931193 21 35 C22.75023644 49.78778557 20.10792305 63.82431811 10.86328125 75.80078125 C10.24839844 76.52652344 9.63351562 77.25226563 9 78 C8.41605469 78.69480469 7.83210937 79.38960937 7.23046875 80.10546875 C-1.8091043 89.94433036 -13.74140101 96.62336295 -27.1484375 97.23828125 C-44.57918279 97.69829652 -58.56171955 92.48659131 -71.921875 81.1171875 C-81.88955942 70.96214059 -86.28828484 56.24569858 -86.31689453 42.3684082 C-86.05031018 27.80006695 -79.30698811 14.66081634 -69.41015625 4.21875 C-49.32112167 -14.27488313 -22.13025444 -13.92347228 0 0 Z " fill="#000000" transform="translate(529,476)"/>
<path d="M0 0 C0.73605469 0.27714844 1.47210937 0.55429687 2.23046875 0.83984375 C15.33200421 6.5145607 24.32724432 19.70397728 29.5625 32.5625 C33.22083778 45.1390898 32.64154264 61.17095898 27 73 C24.91665201 76.56640928 22.58826269 79.78600347 20 83 C19.52691406 83.63550781 19.05382812 84.27101563 18.56640625 84.92578125 C11.38954313 94.09508796 0.09920437 100.49120858 -11.30078125 102.6796875 C-28.40585047 104.70952205 -42.71832441 100.98874118 -56.625 90.6875 C-67.75847099 81.60646018 -73.1297134 70.51534925 -75.7734375 56.44140625 C-77.10747061 42.0660495 -72.78694895 26.27193777 -63.58984375 15.0625 C-46.56033187 -2.97163057 -23.1337923 -9.18312364 0 0 Z " fill="#000000" transform="translate(834,381)"/>
</svg>
